<?xml version="1.0" encoding="UTF-8"?>
<svg width="24px" height="24px" viewBox="0 0 24 24" version="1.1" xmlns="http://www.w3.org/2000/svg" xmlns:xlink="http://www.w3.org/1999/xlink">
    <!-- Generator: Sketch 50.2 (55047) - http://www.bohemiancoding.com/sketch -->
    <title>charcoal(.8)_account</title>
    <desc>Created with Sketch.</desc>
    <defs>
        <path d="M22.6666667,22.1401667 C22.6666667,22.416309 22.442809,22.6401667 22.1666667,22.6401667 C21.8905243,22.6401667 21.6666667,22.416309 21.6666667,22.1401667 C21.6666667,16.847559 17.375941,12.5568333 12.0833333,12.5568333 C6.79072571,12.5568333 2.5,16.847559 2.5,22.1401667 C2.5,22.416309 2.27614237,22.6401667 2,22.6401667 C1.72385763,22.6401667 1.5,22.416309 1.5,22.1401667 C1.5,16.2952743 6.23844096,11.5568333 12.0833333,11.5568333 C17.9282257,11.5568333 22.6666667,16.2952743 22.6666667,22.1401667 Z M17.1666667,5.58333333 C17.1666667,8.39039237 14.8903924,10.6666667 12.0833333,10.6666667 C9.27627429,10.6666667 7,8.39039237 7,5.58333333 C7,2.77627429 9.27627429,0.5 12.0833333,0.5 C14.8903924,0.5 17.1666667,2.77627429 17.1666667,5.58333333 Z M16.1666667,5.58333333 C16.1666667,3.32855904 14.3381076,1.5 12.0833333,1.5 C9.82855904,1.5 8,3.32855904 8,5.58333333 C8,7.83810763 9.82855904,9.66666667 12.0833333,9.66666667 C14.3381076,9.66666667 16.1666667,7.83810763 16.1666667,5.58333333 Z" id="path-1"></path>
    </defs>
    <g id="charcoal(.8)_account" stroke="none" stroke-width="1" fill="none" fill-rule="evenodd">
        <mask id="mask-2" fill="white">
            <use xlink:href="#path-1"></use>
        </mask>
        <use id="Mask" fill-opacity="0.8" fill="#2C3039" fill-rule="nonzero" xlink:href="#path-1"></use>
    </g>
</svg>