<?xml version="1.0" encoding="UTF-8"?>
<svg width="24px" height="24px" viewBox="0 0 24 24" version="1.1" xmlns="http://www.w3.org/2000/svg" xmlns:xlink="http://www.w3.org/1999/xlink">
    <!-- Generator: Sketch 50.2 (55047) - http://www.bohemiancoding.com/sketch -->
    <title>charcoal(.8)_addtobag</title>
    <desc>Created with Sketch.</desc>
    <defs>
        <path d="M4.5,9.5 L4.5,9 C4.5,7.06700338 6.06700338,5.5 8,5.5 C9.93299662,5.5 11.5,7.06700338 11.5,9 L11.5,9.5 L14,9.5 C14.5522847,9.5 15,9.94771525 15,10.5 L15,20.5 C15,21.6045695 14.1045695,22.5 13,22.5 L3,22.5 C1.8954305,22.5 1,21.6045695 1,20.5 L1,10.5 C1,9.94771525 1.44771525,9.5 2,9.5 L4.5,9.5 Z M5.5,9.5 L10.5,9.5 L10.5,9 C10.5,7.61928813 9.38071187,6.5 8,6.5 C6.61928813,6.5 5.5,7.61928813 5.5,9 L5.5,9.5 Z M4.5,10.5 L2,10.5 L2,20.5 C2,21.0522847 2.44771525,21.5 3,21.5 L13,21.5 C13.5522847,21.5 14,21.0522847 14,20.5 L14,10.5 L11.5,10.5 L11.5,12 C11.5,12.2761424 11.2761424,12.5 11,12.5 C10.7238576,12.5 10.5,12.2761424 10.5,12 L10.5,10.5 L5.5,10.5 L5.5,12 C5.5,12.2761424 5.27614237,12.5 5,12.5 C4.72385763,12.5 4.5,12.2761424 4.5,12 L4.5,10.5 Z M19,5 L22,5 C22.2761424,5 22.5,5.22385763 22.5,5.5 C22.5,5.77614237 22.2761424,6 22,6 L19,6 L19,9 C19,9.27614237 18.7761424,9.5 18.5,9.5 C18.2238576,9.5 18,9.27614237 18,9 L18,6 L15,6 C14.7238576,6 14.5,5.77614237 14.5,5.5 C14.5,5.22385763 14.7238576,5 15,5 L18,5 L18,2 C18,1.72385763 18.2238576,1.5 18.5,1.5 C18.7761424,1.5 19,1.72385763 19,2 L19,5 Z" id="path-1"></path>
    </defs>
    <g id="charcoal(.8)_addtobag" stroke="none" stroke-width="1" fill="none" fill-rule="evenodd">
        <mask id="mask-2" fill="white">
            <use xlink:href="#path-1"></use>
        </mask>
        <use id="Mask" fill-opacity="0.8" fill="#2C3039" xlink:href="#path-1"></use>
    </g>
</svg>