<?xml version="1.0" encoding="UTF-8"?>
<svg width="36px" height="36px" viewBox="0 0 36 36" version="1.1" xmlns="http://www.w3.org/2000/svg" xmlns:xlink="http://www.w3.org/1999/xlink">
    <!-- Generator: Sketch 52.2 (67145) - http://www.bohemiancoding.com/sketch -->
    <title>general/icon/incentive/04 discount</title>
    <desc>Created with Sketch.</desc>
    <defs>
        <path d="M27.75,12 C25.6815,12 24,10.32 24,8.25 C24,6.18 25.6815,4.5 27.75,4.5 C29.8185,4.5 31.5,6.18 31.5,8.25 C31.5,10.32 29.8185,12 27.75,12 L27.75,12 Z M20.25,24 C19.0095,24 18,22.995 18,21.75 C18,20.505 19.0095,19.5 20.25,19.5 C21.4905,19.5 22.5,20.505 22.5,21.75 C22.5,22.995 21.4905,24 20.25,24 Z M20.25,22.5 C20.6635,22.5 21,22.165 21,21.75 C21,21.335 20.6635,21 20.25,21 C19.8365,21 19.5,21.335 19.5,21.75 C19.5,22.165 19.8365,22.5 20.25,22.5 Z M16.5,26.25 C16.5,26.67 16.1655,27 15.75,27 C15.336,27 15,26.67 15,26.25 L15,14.25 C15,13.83 15.336,13.5 15.75,13.5 C16.1655,13.5 16.5,13.83 16.5,14.25 L16.5,26.25 L16.5,26.25 Z M11.25,21 C10.0095,21 9,19.995 9,18.75 C9,17.505 10.0095,16.5 11.25,16.5 C12.4905,16.5 13.5,17.505 13.5,18.75 C13.5,19.995 12.4905,21 11.25,21 Z M11.25,19.5 C11.6635,19.5 12,19.165 12,18.75 C12,18.335 11.6635,18 11.25,18 C10.8365,18 10.5,18.335 10.5,18.75 C10.5,19.165 10.8365,19.5 11.25,19.5 Z M35.25,0 L21.75,0 C21.5505,0 21.36,0.075 21.2205,0.225 L0.2205,21.225 C-0.0735,21.51 -0.0735,21.99 0.2205,22.275 L13.7205,35.775 C13.866,35.925 14.058,36 14.25,36 C14.442,36 14.634,35.925 14.781,35.775 L35.781,14.775 C35.9205,14.64 36,14.445 36,14.25 L36,0.75 C36,0.33 35.6655,0 35.25,0 L35.25,0 Z" id="path-1"></path>
    </defs>
    <g id="general/icon/incentive/04-discount" stroke="none" stroke-width="1" fill="none" fill-rule="evenodd">
        <mask id="mask-2" fill="white">
            <use xlink:href="#path-1"></use>
        </mask>
        <use id="Mask" fill="#FFFFFF" xlink:href="#path-1"></use>
        <g id="general/fill/brand/global/charcoal-(.80-T)" mask="url(#mask-2)" fill="#2C3039" fill-opacity="0.8">
            <polygon id="Rectangle" points="0 0 36 0 36 36 0 36"></polygon>
        </g>
    </g>
</svg>