<?xml version="1.0" encoding="UTF-8"?>
<svg width="24px" height="24px" viewBox="0 0 24 24" version="1.1" xmlns="http://www.w3.org/2000/svg" xmlns:xlink="http://www.w3.org/1999/xlink">
    <!-- Generator: Sketch 50.2 (55047) - http://www.bohemiancoding.com/sketch -->
    <title>charcoal(.8)_eyeclosed</title>
    <desc>Created with Sketch.</desc>
    <defs></defs>
    <g id="charcoal(.8)_eyeclosed" stroke="none" stroke-width="1" fill="none" fill-rule="evenodd" stroke-linecap="round" stroke-linejoin="round" stroke-opacity="0.8">
        <g id="Group" transform="translate(3.000000, 5.350000)" stroke="#2C3039">
            <path d="M7.06312174,8.58905217 C7.55929565,9.08444348 8.24329565,9.39122609 9.00007826,9.39122609 C10.5128609,9.39122609 11.7392087,8.16487826 11.7392087,6.65209565 C11.7392087,5.89609565 11.4324261,5.21131304 10.9370348,4.71513913" id="Stroke-3277"></path>
            <path d="M9.47770435,3.96117391 C9.32196522,3.93378261 9.16387826,3.91265217 9.00031304,3.91265217 C7.48753043,3.91265217 6.26118261,5.139 6.26118261,6.65178261 C6.26118261,6.81613043 6.28153043,6.97421739 6.30892174,7.12995652" id="Stroke-3278"></path>
            <path d="M4.89498261,10.7571913 C6.08924348,11.3324087 7.46428696,11.7393652 8.99976522,11.7393652 C13.6954174,11.7393652 17.9997652,6.6524087 17.9997652,6.6524087 C17.9997652,6.6524087 15.8788957,4.15353913 12.9934174,2.65875652" id="Stroke-3279"></path>
            <path d="M11.4433043,1.99557391 C10.6552174,1.73105217 9.83504348,1.56513913 9,1.56513913 C4.30434783,1.56513913 0,6.65209565 0,6.65209565 C0,6.65209565 1.27956522,8.48731304 3.48495652,9.95392174" id="Stroke-3280"></path>
            <path d="M2.34782609,13.3043478 L15.6521739,0" id="Stroke-3281"></path>
        </g>
    </g>
</svg>