<?xml version="1.0" encoding="UTF-8"?>
<svg width="24px" height="24px" viewBox="0 0 24 24" version="1.1" xmlns="http://www.w3.org/2000/svg" xmlns:xlink="http://www.w3.org/1999/xlink">
    <!-- Generator: Sketch 50.2 (55047) - http://www.bohemiancoding.com/sketch -->
    <title>charcoal(.8)_menu</title>
    <desc>Created with Sketch.</desc>
    <defs>
        <path d="M2,4.5 L22,4.5 C22.2761424,4.5 22.5,4.72385763 22.5,5 C22.5,5.27614237 22.2761424,5.5 22,5.5 L2,5.5 C1.72385763,5.5 1.5,5.27614237 1.5,5 C1.5,4.72385763 1.72385763,4.5 2,4.5 Z M2,11.5 L22,11.5 C22.2761424,11.5 22.5,11.7238576 22.5,12 C22.5,12.2761424 22.2761424,12.5 22,12.5 L2,12.5 C1.72385763,12.5 1.5,12.2761424 1.5,12 C1.5,11.7238576 1.72385763,11.5 2,11.5 Z M2,18.5 L22,18.5 C22.2761424,18.5 22.5,18.7238576 22.5,19 C22.5,19.2761424 22.2761424,19.5 22,19.5 L2,19.5 C1.72385763,19.5 1.5,19.2761424 1.5,19 C1.5,18.7238576 1.72385763,18.5 2,18.5 Z" id="path-1"></path>
    </defs>
    <g id="charcoal(.8)_menu" stroke="none" stroke-width="1" fill="none" fill-rule="evenodd">
        <mask id="mask-2" fill="white">
            <use xlink:href="#path-1"></use>
        </mask>
        <use id="Mask" fill-opacity="0.8" fill="#2C3039" xlink:href="#path-1"></use>
    </g>
</svg>