<?xml version="1.0" encoding="UTF-8"?>
<svg width="36px" height="36px" viewBox="0 0 36 36" version="1.1" xmlns="http://www.w3.org/2000/svg" xmlns:xlink="http://www.w3.org/1999/xlink">
    <!-- Generator: Sketch 50.2 (55047) - http://www.bohemiancoding.com/sketch -->
    <title>charcoal(.8)_loyalty</title>
    <desc>Created with Sketch.</desc>
    <defs>
        <path d="M18.5,11 C11.04395,11 5,8.98528571 5,6.5 C5,4.01471429 11.04395,2 18.5,2 C25.95605,2 32,4.01471429 32,6.5 C32,8.98528571 25.95605,11 18.5,11 Z M5,9 C7.4786,11.2023968 13.0109,12.3422104 18.5,12.3422104 C23.98775,12.3422104 29.5214,11.2023968 32,9 L32,13.6737683 L32,14.3395473 C32,16.5446072 26.45555,19 18.5,19 C10.54445,19 5,16.5446072 5,14.3395473 L5,13.6737683 L5,9 Z M5,17 C7.29905,19.1171637 12.3413,20.5222155 18.5,20.5222155 C24.6587,20.5222155 29.70095,19.1171637 32,17 L32,21.2069385 C32,23.4733719 26.45555,26 18.5,26 C10.54445,26 5,23.4733719 5,21.2069385 L5,17 Z M5,24 C7.29905,26.0417327 12.3413,27.3967248 18.5,27.3967248 C24.6587,27.3967248 29.70095,26.0417327 32,24 L32,28.0570523 C32,31.389065 26.06945,34 18.5,34 C10.9292,34 5,31.389065 5,28.0570523 L5,24 Z" id="path-1"></path>
    </defs>
    <g id="charcoal(.8)_loyalty" stroke="none" stroke-width="1" fill="none" fill-rule="evenodd">
        <mask id="mask-2" fill="white">
            <use xlink:href="#path-1"></use>
        </mask>
        <use id="Mask" fill-opacity="0.8" fill="#2C3039" xlink:href="#path-1"></use>
    </g>
</svg>
