<?xml version="1.0" encoding="UTF-8"?>
<svg width="24px" height="24px" viewBox="0 0 24 24" version="1.1" xmlns="http://www.w3.org/2000/svg" xmlns:xlink="http://www.w3.org/1999/xlink">
    <!-- Generator: Sketch 50.2 (55047) - http://www.bohemiancoding.com/sketch -->
    <title>charcoal(.8)_pinterest</title>
    <desc>Created with Sketch.</desc>
    <defs>
        <path d="M12.2677129,4 C6.87037464,4 4,7.5126591 4,11.3428326 C4,13.119163 4.97730595,15.3342634 6.54173398,16.0367952 C6.77929071,16.1455501 6.90853143,16.099298 6.96145857,15.8755379 C7.0082314,15.7055302 7.21378568,14.8867431 7.31348565,14.5004756 C7.34425725,14.37672 7.32825602,14.2692151 7.22978691,14.1529599 C6.71036234,13.5429322 6.29802292,12.4316319 6.29802292,11.3890847 C6.29802292,8.71771368 8.38926071,6.1238462 11.9476883,6.1238462 C15.0248481,6.1238462 17.177629,8.15393814 17.177629,11.0578197 C17.177629,14.3392183 15.4679591,16.6093211 13.2462497,16.6093211 C12.0166167,16.6093211 11.1008539,15.6292767 11.3913378,14.4167218 C11.742134,12.9729064 12.4301869,11.4203361 12.4301869,10.3790389 C12.4301869,9.44524663 11.9107624,8.67271164 10.8497577,8.67271164 C9.59796907,8.67271164 8.58250635,9.93151866 8.58250635,11.6215952 C8.58250635,12.6953938 8.95668898,13.4204267 8.95668898,13.4204267 C8.95668898,13.4204267 7.71843988,18.5006568 7.48826833,19.4494498 C7.09931533,21.0557725 7.54119548,23.6571403 7.57935226,23.8809005 C7.60273867,24.0046561 7.73936457,24.0434078 7.81567813,23.9421532 C7.93753366,23.7796459 9.43426417,21.6107976 9.85398877,20.0432266 C10.0066159,19.4719508 10.6331256,17.1555959 10.6331256,17.1555959 C11.045465,17.9118801 12.2357104,18.5456588 13.5035003,18.5456588 C17.2748673,18.5456588 20,15.1792563 20,11.0015671 C19.9864605,6.99638572 16.6114316,4 12.2677129,4 Z" id="path-1"></path>
    </defs>
    <g id="charcoal(.8)_pinterest" stroke="none" stroke-width="1" fill="none" fill-rule="evenodd">
        <mask id="mask-2" fill="white">
            <use xlink:href="#path-1"></use>
        </mask>
        <use id="Mask" fill-opacity="0.8" fill="#2C3039" fill-rule="nonzero" xlink:href="#path-1"></use>
    </g>
</svg>