<?xml version="1.0" encoding="UTF-8"?>
<svg width="36px" height="36px" viewBox="0 0 36 36" version="1.1" xmlns="http://www.w3.org/2000/svg" xmlns:xlink="http://www.w3.org/1999/xlink">
    <!-- Generator: Sketch 50.2 (55047) - http://www.bohemiancoding.com/sketch -->
    <title>charcoal(.8)_freeshipping</title>
    <desc>Created with Sketch.</desc>
    <defs>
        <path d="M32.2105263,17.6374961 C32.6463158,17.6374961 33,17.9816162 33,18.4056213 L33,29.159374 C33,29.5203929 32.7426316,29.8322517 32.3810526,29.9090642 L18.1705263,32.981565 C18.1136842,32.993855 18.0568421,33 18,33 C17.9415789,33 17.8847368,32.993855 17.8278947,32.981565 L3.61736842,29.9090642 C3.25578947,29.8322517 3,29.5203929 3,29.159374 L3,18.4056213 C3,17.9816162 3.35210526,17.6374961 3.78947368,17.6374961 L14.8421053,17.6374961 C15.8936842,17.6374961 16.83,16.9507922 17.1173684,15.9660557 L17.2405263,15.5512681 C17.2436842,15.5405143 17.2515789,15.5328331 17.2547368,15.5220793 C17.2721053,15.4744556 17.2973684,15.4329768 17.3226316,15.391498 C17.3431579,15.354628 17.3621053,15.3146855 17.3889474,15.2824243 C17.4173684,15.2486268 17.4536842,15.2209743 17.4884211,15.1917855 C17.5231579,15.1610605 17.5563158,15.1303355 17.5973684,15.1057555 C17.6321053,15.0857842 17.67,15.0750305 17.7063158,15.0612042 C17.7584211,15.0396967 17.8073684,15.0197255 17.8610526,15.010508 C17.8721053,15.0089717 17.88,15.0028267 17.8894737,15.0012905 C17.9289474,14.9966817 17.9636842,15.0058992 18.0015789,15.0058992 C18.0378947,15.0058992 18.0726316,14.9966817 18.1089474,15.0012905 C18.1184211,15.0028267 18.1263158,15.0089717 18.1357895,15.010508 C18.1957895,15.0212617 18.2510526,15.0427692 18.3078947,15.065813 C18.3378947,15.078103 18.3694737,15.0873205 18.3978947,15.102683 C18.4452632,15.1303355 18.4847368,15.1672055 18.5257895,15.2040755 C18.5542105,15.2301918 18.5842105,15.250163 18.6078947,15.2793518 C18.6378947,15.3146855 18.6584211,15.3577005 18.6821053,15.3976431 C18.7042105,15.4391218 18.7278947,15.4775281 18.7436842,15.5205431 C18.7468421,15.5328331 18.7547368,15.5405143 18.7594737,15.5512681 L18.8810526,15.9660557 C19.1684211,16.9507922 20.1063158,17.6374961 21.1578947,17.6374961 L32.2105263,17.6374961 Z M35.9598196,14.9303875 C36.0396445,15.1774713 35.9989495,15.4505638 35.8518212,15.6618854 C35.704693,15.8748326 35.4683487,16 35.2179176,16 L21.1311708,16 C20.7805673,16 20.4737893,15.7594185 20.3783124,15.409925 L18.0007826,6.76849668 L15.6232528,15.409925 C15.5262107,15.7594185 15.2194327,16 14.8703944,16 L0.783647562,16 C0.531651312,16 0.295307004,15.8748326 0.148178759,15.6618854 C0.00105051444,15.4505638 -0.039644532,15.1774713 0.0401803668,14.9303875 L3.17056856,5.17708239 C3.26761059,4.87635549 3.52430242,4.66015722 3.82638488,4.62602065 L17.9131317,3.0004698 C17.9444356,2.9972187 17.9710439,3.0134742 18.0007826,3.0134742 C18.0305213,3.01184865 18.0571296,2.9972187 18.0868683,3.0004698 L32.1736151,4.62602065 C32.4772628,4.66015722 32.7323894,4.87635549 32.8294314,5.17708239 L35.9598196,14.9303875 Z" id="path-1"></path>
    </defs>
    <g id="charcoal(.8)_freeshipping" stroke="none" stroke-width="1" fill="none" fill-rule="evenodd">
        <mask id="mask-2" fill="white">
            <use xlink:href="#path-1"></use>
        </mask>
        <use id="Mask" fill-opacity="0.8" fill="#2C3039" xlink:href="#path-1"></use>
    </g>
</svg>
