<?xml version="1.0" encoding="UTF-8"?>
<svg width="24px" height="24px" viewBox="0 0 24 24" version="1.1" xmlns="http://www.w3.org/2000/svg" xmlns:xlink="http://www.w3.org/1999/xlink">
    <!-- Generator: Sketch 50.2 (55047) - http://www.bohemiancoding.com/sketch -->
    <title>white_caret_large_right</title>
    <desc>Created with Sketch.</desc>
    <defs>
        <path d="M18.1452411,9.15198669 L18.1452411,9.15198669 C18.3362389,9.34298448 18.3362389,9.65265308 18.1452411,9.84365087 C18.1437449,9.84514707 18.1422391,9.84663354 18.1407236,9.8481102 L13.8445232,14.0342118 C13.4564081,14.4123807 12.8376996,14.4126071 12.4493079,14.0347224 L8.1492668,9.85100949 C7.95404111,9.6610652 7.94975969,9.34882324 8.13970398,9.15359755 C8.14127584,9.15198198 8.14285875,9.15037722 8.14445261,9.14878336 L8.14445261,9.14878336 C8.34061351,8.95262246 8.65787005,8.95011147 8.85711128,9.14314289 L12.9730608,13.1308092 C13.0700711,13.224796 13.2241941,13.224731 13.3211251,13.1306625 L17.4264217,9.14660055 C17.6272551,8.95169799 17.9473509,8.95409648 18.1452411,9.15198669 Z" id="path-1"></path>
    </defs>
    <g id="white_caret_large_right" stroke="none" stroke-width="1" fill="none" fill-rule="evenodd">
        <mask id="mask-2" fill="white">
            <use xlink:href="#path-1"></use>
        </mask>
        <use id="Mask" fill="#FFFFFF" fill-rule="nonzero" transform="translate(13.144245, 11.658994) rotate(270.000000) translate(-13.144245, -11.658994) " xlink:href="#path-1"></use>
    </g>
</svg>