<?xml version="1.0" encoding="UTF-8"?>
<svg width="24px" height="24px" viewBox="0 0 24 24" version="1.1" xmlns="http://www.w3.org/2000/svg" xmlns:xlink="http://www.w3.org/1999/xlink">
    <!-- Generator: Sketch 50.2 (55047) - http://www.bohemiancoding.com/sketch -->
    <title>white_large_up</title>
    <desc>Created with Sketch.</desc>
    <defs>
        <path d="M17.1452411,8.15198669 L17.1452411,8.15198669 C17.3362389,8.34298448 17.3362389,8.65265308 17.1452411,8.84365087 C17.1437449,8.84514707 17.1422391,8.84663354 17.1407236,8.8481102 L12.8445232,13.0342118 C12.4564081,13.4123807 11.8376996,13.4126071 11.4493079,13.0347224 L7.1492668,8.85100949 C6.95404111,8.6610652 6.94975969,8.34882324 7.13970398,8.15359755 C7.14127584,8.15198198 7.14285875,8.15037722 7.14445261,8.14878336 L7.14445261,8.14878336 C7.34061351,7.95262246 7.65787005,7.95011147 7.85711128,8.14314289 L11.9730608,12.1308092 C12.0700711,12.224796 12.2241941,12.224731 12.3211251,12.1306625 L16.4264217,8.14660055 C16.6272551,7.95169799 16.9473509,7.95409648 17.1452411,8.15198669 Z" id="path-1"></path>
    </defs>
    <g id="white_large_up" stroke="none" stroke-width="1" fill="none" fill-rule="evenodd">
        <mask id="mask-2" fill="white">
            <use xlink:href="#path-1"></use>
        </mask>
        <use id="Mask" fill="#FFFFFF" fill-rule="nonzero" transform="translate(12.144245, 10.658994) rotate(-180.000000) translate(-12.144245, -10.658994) " xlink:href="#path-1"></use>
    </g>
</svg>