<?xml version="1.0" encoding="UTF-8"?>
<svg width="24px" height="24px" viewBox="0 0 24 24" version="1.1" xmlns="http://www.w3.org/2000/svg" xmlns:xlink="http://www.w3.org/1999/xlink">
    <!-- Generator: Sketch 50.2 (55047) - http://www.bohemiancoding.com/sketch -->
    <title>white_caret_large_left</title>
    <desc>Created with Sketch.</desc>
    <defs>
        <path d="M16.1452411,9.15198669 L16.1452411,9.15198669 C16.3362389,9.34298448 16.3362389,9.65265308 16.1452411,9.84365087 C16.1437449,9.84514707 16.1422391,9.84663354 16.1407236,9.8481102 L11.8445232,14.0342118 C11.4564081,14.4123807 10.8376996,14.4126071 10.4493079,14.0347224 L6.1492668,9.85100949 C5.95404111,9.6610652 5.94975969,9.34882324 6.13970398,9.15359755 C6.14127584,9.15198198 6.14285875,9.15037722 6.14445261,9.14878336 L6.14445261,9.14878336 C6.34061351,8.95262246 6.65787005,8.95011147 6.85711128,9.14314289 L10.9730608,13.1308092 C11.0700711,13.224796 11.2241941,13.224731 11.3211251,13.1306625 L15.4264217,9.14660055 C15.6272551,8.95169799 15.9473509,8.95409648 16.1452411,9.15198669 Z" id="path-1"></path>
    </defs>
    <g id="white_caret_large_left" stroke="none" stroke-width="1" fill="none" fill-rule="evenodd">
        <mask id="mask-2" fill="white">
            <use xlink:href="#path-1"></use>
        </mask>
        <use id="Mask" fill="#FFFFFF" fill-rule="nonzero" transform="translate(11.144245, 11.658994) rotate(90.000000) translate(-11.144245, -11.658994) " xlink:href="#path-1"></use>
    </g>
</svg>