<?xml version="1.0" encoding="UTF-8"?>
<svg width="24px" height="24px" viewBox="0 0 24 24" version="1.1" xmlns="http://www.w3.org/2000/svg" xmlns:xlink="http://www.w3.org/1999/xlink">
    <!-- Generator: Sketch 50.2 (55047) - http://www.bohemiancoding.com/sketch -->
    <title>white_plus</title>
    <desc>Created with Sketch.</desc>
    <defs>
        <path d="M12.5,11.5 L16.5,11.5 C16.7761424,11.5 17,11.7238576 17,12 C17,12.2761424 16.7761424,12.5 16.5,12.5 L12.5,12.5 L12.5,16.5 C12.5,16.7761424 12.2761424,17 12,17 C11.7238576,17 11.5,16.7761424 11.5,16.5 L11.5,12.5 L7.5,12.5 C7.22385763,12.5 7,12.2761424 7,12 C7,11.7238576 7.22385763,11.5 7.5,11.5 L11.5,11.5 L11.5,7.5 C11.5,7.22385763 11.7238576,7 12,7 C12.2761424,7 12.5,7.22385763 12.5,7.5 L12.5,11.5 Z" id="path-1"></path>
    </defs>
    <g id="white_plus" stroke="none" stroke-width="1" fill="none" fill-rule="evenodd">
        <mask id="mask-2" fill="white">
            <use xlink:href="#path-1"></use>
        </mask>
        <use id="Mask" fill="#FFFFFF" xlink:href="#path-1"></use>
    </g>
</svg>