<?xml version="1.0" encoding="UTF-8"?>
<svg width="24px" height="24px" viewBox="0 0 24 24" version="1.1" xmlns="http://www.w3.org/2000/svg" xmlns:xlink="http://www.w3.org/1999/xlink">
    <!-- Generator: Sketch 50.2 (55047) - http://www.bohemiancoding.com/sketch -->
    <title>white_x_small</title>
    <desc>Created with Sketch.</desc>
    <defs>
        <path d="M12.5,11.5 L18.5,11.5 C18.7761424,11.5 19,11.7238576 19,12 C19,12.2761424 18.7761424,12.5 18.5,12.5 L12.5,12.5 L12.5,18.5 C12.5,18.7761424 12.2761424,19 12,19 C11.7238576,19 11.5,18.7761424 11.5,18.5 L11.5,12.5 L5.5,12.5 C5.22385763,12.5 5,12.2761424 5,12 C5,11.7238576 5.22385763,11.5 5.5,11.5 L11.5,11.5 L11.5,5.5 C11.5,5.22385763 11.7238576,5 12,5 C12.2761424,5 12.5,5.22385763 12.5,5.5 L12.5,11.5 Z" id="path-1"></path>
    </defs>
    <g id="white_x_small" stroke="none" stroke-width="1" fill="none" fill-rule="evenodd">
        <mask id="mask-2" fill="white">
            <use xlink:href="#path-1"></use>
        </mask>
        <use id="Mask" fill="#FFFFFF" transform="translate(12.000000, 12.000000) rotate(45.000000) translate(-12.000000, -12.000000) " xlink:href="#path-1"></use>
    </g>
</svg>